<svg width="20" height="18" viewBox="0 0 20 18" fill="none" xmlns="http://www.w3.org/2000/svg">
<path d="M19.4015 10.194L18.6322 0.851074H13.9923C13.9923 0.851074 10.4583 8.04343 10.1458 9.02312H10.0977L6.37138 0.851074H1.70747L0.938164 8.95144L0.289062 17.1713H3.12587C4.35195 17.1713 4.83277 16.6456 4.92893 15.3553C4.92893 15.3553 5.40975 7.82838 5.33763 6.72921H5.38571L5.52995 7.23101C5.72228 7.90006 8.36677 14.3278 8.36677 14.3278H11.8527C11.8527 14.3278 14.4972 7.99564 14.8337 6.72921H14.8818L15.2905 15.3553C15.3867 16.6456 15.8915 17.1713 17.0936 17.1713H19.9304L19.4015 10.194Z" fill="#0361F0"/>
</svg>
