<svg xmlns="http://www.w3.org/2000/svg" xmlns:xlink="http://www.w3.org/1999/xlink" viewBox="0 0 499.97 500.68"><defs><style>.cls-1,.cls-2,.cls-3,.cls-4,.cls-5,.cls-6,.cls-7,.cls-8{fill-opacity:0.5;}.cls-1{fill:url(#linear-gradient);}.cls-2{fill:url(#linear-gradient-2);}.cls-3{fill:url(#linear-gradient-3);}.cls-4{fill:url(#linear-gradient-4);}.cls-5{fill:url(#linear-gradient-5);}.cls-6{fill:url(#linear-gradient-6);}.cls-7{fill:url(#linear-gradient-7);}.cls-8{fill:url(#linear-gradient-8);}</style><linearGradient id="linear-gradient" x1="295.02" y1="689.72" x2="455.12" y2="864.52" gradientTransform="matrix(0.87, -0.5, -0.5, -0.87, 294.42, 990.75)" gradientUnits="userSpaceOnUse"><stop offset="0" stop-color="#ffe500"/><stop offset="0.05" stop-color="#ffe609" stop-opacity="0.87"/><stop offset="0.13" stop-color="#ffe717" stop-opacity="0.67"/><stop offset="0.21" stop-color="#ffe924" stop-opacity="0.49"/><stop offset="0.3" stop-color="#ffea2f" stop-opacity="0.34"/><stop offset="0.39" stop-color="#ffea38" stop-opacity="0.22"/><stop offset="0.48" stop-color="#ffeb3e" stop-opacity="0.12"/><stop offset="0.58" stop-color="#ffec43" stop-opacity="0.05"/><stop offset="0.68" stop-color="#ffec46" stop-opacity="0.01"/><stop offset="0.81" stop-color="#ffec47" stop-opacity="0"/></linearGradient><linearGradient id="linear-gradient-2" x1="64.97" y1="1043.37" x2="225.07" y2="1218.17" gradientTransform="matrix(-0.86, 0.51, 0.51, 0.86, -181.64, -677.32)" xlink:href="#linear-gradient"/><linearGradient id="linear-gradient-3" x1="307.64" y1="682.89" x2="467.75" y2="857.69" gradientTransform="matrix(-0.49, -0.87, -0.87, 0.49, 991.82, 231.41)" xlink:href="#linear-gradient"/><linearGradient id="linear-gradient-4" x1="52.42" y1="1050.34" x2="212.52" y2="1225.14" gradientTransform="matrix(0.5, 0.87, 0.87, -0.5, -682.76, 684.04)" xlink:href="#linear-gradient"/><linearGradient id="linear-gradient-5" x1="297.7" y1="683.43" x2="457.8" y2="858.22" gradientTransform="matrix(0.29, -0.96, -0.96, -0.29, 780.5, 760.72)" xlink:href="#linear-gradient"/><linearGradient id="linear-gradient-6" x1="62.36" y1="1049.69" x2="222.47" y2="1224.49" gradientTransform="matrix(-0.28, 0.96, 0.96, 0.28, -707.93, -130.16)" xlink:href="#linear-gradient"/><linearGradient id="linear-gradient-7" x1="301.39" y1="680.13" x2="461.49" y2="854.92" gradientTransform="matrix(-0.95, -0.3, -0.3, 0.95, 769.63, -270.21)" xlink:href="#linear-gradient"/><linearGradient id="linear-gradient-8" x1="58.71" y1="1053.04" x2="218.81" y2="1227.83" gradientTransform="matrix(0.96, 0.29, 0.29, -0.96, -142.03, 1205.57)" xlink:href="#linear-gradient"/></defs><title>rays</title><g id="Layer_2" data-name="Layer 2"><g id="Object"><path class="cls-1" d="M194.82.43,324.12,0q-37.23,124.65-74.45,249.31Q222.25,124.87,194.82.43Z"/><path class="cls-2" d="M307.36,498.79l-129.28,1.89q35.8-125.07,71.62-250.13Z"/><path class="cls-3" d="M0,302.77,1.38,173.48l248.24,77.93Z"/><path class="cls-4" d="M499.88,197.23,500,326.52,250.86,251.4Z"/><path class="cls-5" d="M37.13,105.85l94-88.78L247.4,249.84Z"/><path class="cls-6" d="M460.16,392.32l-93,89.83L248.27,250.72Z"/><path class="cls-7" d="M101.88,459.64,14.43,364.4l234.37-113Z"/><path class="cls-8" d="M394.26,40.66l88.52,94.25L249.7,250.55Z"/></g></g></svg>